<svg width="16" height="17" viewBox="0 0 16 17" fill="none" xmlns="http://www.w3.org/2000/svg">
<path d="M13.4141 12.6812C13.1194 11.9831 12.6916 11.3489 12.1547 10.8141C11.6195 10.2777 10.9854 9.85001 10.2875 9.55469C10.2813 9.55156 10.275 9.55 10.2688 9.54688C11.2422 8.84375 11.875 7.69844 11.875 6.40625C11.875 4.26562 10.1407 2.53125 8.00004 2.53125C5.85941 2.53125 4.12504 4.26562 4.12504 6.40625C4.12504 7.69844 4.75785 8.84375 5.73129 9.54844C5.72504 9.55156 5.71879 9.55312 5.71254 9.55625C5.01254 9.85156 4.38441 10.275 3.84535 10.8156C3.30896 11.3509 2.8813 11.985 2.58598 12.6828C2.29585 13.366 2.13939 14.0985 2.12504 14.8406C2.12462 14.8573 2.12755 14.8739 2.13364 14.8894C2.13974 14.9049 2.14888 14.9191 2.16053 14.931C2.17218 14.943 2.1861 14.9525 2.20147 14.9589C2.21684 14.9654 2.23336 14.9688 2.25004 14.9688H3.18754C3.25629 14.9688 3.31098 14.9141 3.31254 14.8469C3.34379 13.6406 3.82816 12.5109 4.68441 11.6547C5.57035 10.7688 6.74691 10.2812 8.00004 10.2812C9.25316 10.2812 10.4297 10.7688 11.3157 11.6547C12.1719 12.5109 12.6563 13.6406 12.6875 14.8469C12.6891 14.9156 12.7438 14.9688 12.8125 14.9688H13.75C13.7667 14.9688 13.7832 14.9654 13.7986 14.9589C13.814 14.9525 13.8279 14.943 13.8396 14.931C13.8512 14.9191 13.8603 14.9049 13.8664 14.8894C13.8725 14.8739 13.8755 14.8573 13.875 14.8406C13.8594 14.0938 13.7047 13.3672 13.4141 12.6812ZM8.00004 9.09375C7.28285 9.09375 6.60785 8.81406 6.10004 8.30625C5.59223 7.79844 5.31254 7.12344 5.31254 6.40625C5.31254 5.68906 5.59223 5.01406 6.10004 4.50625C6.60785 3.99844 7.28285 3.71875 8.00004 3.71875C8.71723 3.71875 9.39223 3.99844 9.90004 4.50625C10.4079 5.01406 10.6875 5.68906 10.6875 6.40625C10.6875 7.12344 10.4079 7.79844 9.90004 8.30625C9.39223 8.81406 8.71723 9.09375 8.00004 9.09375Z" fill="#06919D"/>
</svg>
