<svg width="273" height="95" viewBox="0 0 273 95" fill="none" xmlns="http://www.w3.org/2000/svg">
<path fill-rule="evenodd" clip-rule="evenodd" d="M65.1876 20.4228V34.3875C65.1876 34.3875 65.2187 38.4506 71.3209 38.4625C77.1901 38.4625 77.392 34.6735 77.4075 34.3994V10.128C77.9354 6.67256 83.5407 8.93646 83.5407 8.93646C100.17 15.0728 112.514 27.0239 115.993 41.3341C116.008 41.3699 116.008 41.4294 116.024 41.4771C116.039 41.5009 116.039 41.5247 116.055 41.5486C116.101 41.7392 116.148 41.9299 116.179 42.1205C116.567 44.3129 115.294 46.0287 111.738 46.2551H68.6968H68.1067C67.0043 46.2789 65.2031 46.5173 65.2031 48.4714C65.2031 48.5786 65.1876 48.6739 65.1876 48.7573V49.8178V53.6783V79.5941H65.2187C65.2187 79.5941 65.2808 83.6333 71.3674 83.6333C76.3672 83.6333 77.2522 80.9047 77.4075 79.9396V55.7278C77.4075 54.0596 78.8981 53.7379 79.7211 53.6783H80.2645H108.322H111.691H112.903C114.285 53.7737 116.381 54.2145 116.381 56.1091C112.266 77.914 87.7331 94.7503 58.2159 94.7503C28.6211 94.7503 4.04164 77.8306 0.00457611 55.9661C-0.104114 54.3575 1.74362 53.8332 3.3895 53.6783H5.87385H36.4468H37.0835C37.9064 53.7498 39.2573 54.0954 39.2573 55.7039V79.5583C39.2573 79.5583 39.3038 83.6214 45.3905 83.6333C51.2908 83.6333 51.4771 79.8085 51.4771 79.5702V79.5583V53.6783V49.8178V48.4714C51.4771 46.5173 49.676 46.2789 48.5736 46.2551H47.999H5.54777C1.37097 46.2551 -0.135168 44.5036 0.221956 42.1682C0.284065 41.918 0.330647 41.6677 0.392755 41.4294C0.408282 41.4056 0.408282 41.3818 0.408282 41.3579C3.90189 26.9881 16.3392 14.9775 33.0774 8.86497H33.093C33.093 8.86497 39.2573 6.36276 39.2573 10.6284V34.3875C39.2573 34.3875 39.3038 38.4506 45.3905 38.4625C51.1045 38.4625 51.4616 34.876 51.4771 34.4232V20.5539C47.0053 18.707 43.962 15.0728 43.962 10.9263C43.962 4.9091 50.3592 0 58.1849 0C66.0261 0 72.4233 4.9091 72.4233 10.9263C72.4233 14.9894 69.5042 18.5521 65.1876 20.4228Z" fill="black"/>
<path fill-rule="evenodd" clip-rule="evenodd" d="M181.716 52.4458L180.091 64.0216H142.024V63.1296H143.442C144.68 63.1296 145.686 62.9512 146.434 62.6142C147.002 62.3962 147.414 61.9998 147.724 61.4448C147.93 61.0682 148.059 60.0374 148.059 58.3922V36.7075C148.059 35.0226 147.93 33.9721 147.724 33.5558C147.492 33.1197 147.027 32.763 146.305 32.4458C145.609 32.1287 144.629 31.9701 143.442 31.9701H142.024V31.0781H164.9V31.9701H163.018C161.78 31.9701 160.774 32.1485 160 32.4855C159.459 32.7035 159.046 33.0999 158.711 33.6549C158.479 34.0315 158.375 35.0623 158.375 36.7075V57.6985C158.375 59.3833 158.504 60.4735 158.736 60.9294C158.994 61.3853 159.484 61.7421 160.232 61.9601C160.774 62.1187 162.038 62.1782 164.049 62.1782H167.634C169.904 62.1782 171.812 61.861 173.334 61.2664C174.83 60.6519 176.145 59.6806 177.254 58.3328C178.363 57.0047 179.421 55.0424 180.401 52.4458H181.716Z" fill="black"/>
<path fill-rule="evenodd" clip-rule="evenodd" d="M207.74 63.1296V64.0216H185.302V63.1296H186.746C187.984 63.1296 188.99 62.9512 189.738 62.6142C190.279 62.3962 190.718 61.9998 191.002 61.4448C191.234 61.0682 191.363 60.0374 191.363 58.3922V36.7075C191.363 35.0226 191.234 33.9721 191.002 33.5558C190.769 33.1197 190.305 32.763 189.583 32.4458C188.887 32.1287 187.932 31.9701 186.746 31.9701H185.302V31.0781H207.74V31.9701H206.296C205.058 31.9701 204.052 32.1485 203.304 32.4855C202.762 32.7035 202.324 33.0999 202.014 33.6549C201.782 34.0315 201.653 35.0623 201.653 36.7075V58.3922C201.653 60.0771 201.782 61.1276 202.014 61.5439C202.272 61.9601 202.736 62.3367 203.433 62.6539C204.155 62.971 205.109 63.1296 206.296 63.1296H207.74Z" fill="black"/>
<path fill-rule="evenodd" clip-rule="evenodd" d="M226.695 49.0959V58.2535C226.695 60.0374 226.85 61.1474 227.134 61.6033C227.418 62.0791 227.933 62.4358 228.656 62.7133C229.378 62.9909 230.719 63.1296 232.653 63.1296V64.0216H210.86V63.1296C212.846 63.1296 214.187 62.9909 214.883 62.6935C215.605 62.416 216.095 62.0592 216.379 61.6033C216.663 61.1474 216.818 60.0374 216.818 58.2535V36.866C216.818 35.0821 216.663 33.9523 216.379 33.4964C216.095 33.0206 215.605 32.6639 214.883 32.3863C214.161 32.1088 212.82 31.9701 210.86 31.9701V31.0781H229.558C235.696 31.0781 240.107 31.9106 242.789 33.5955C245.471 35.2803 246.812 37.3814 246.812 39.9185C246.812 42.0593 245.935 43.8829 244.233 45.4091C242.505 46.9354 240.107 47.9661 237.063 48.5211C235.026 48.9175 231.57 49.0959 226.695 49.0959ZM226.695 32.9612V47.2129C227.418 47.2525 227.933 47.2525 228.295 47.2525C230.848 47.2525 232.834 46.6777 234.226 45.4884C235.619 44.3189 236.315 42.4953 236.315 40.0375C236.315 37.5994 235.619 35.8155 234.226 34.6658C232.834 33.536 230.77 32.9612 228.011 32.9612H226.695Z" fill="black"/>
<path fill-rule="evenodd" clip-rule="evenodd" d="M272.5 63.1296V64.0216H250.062V63.1296H251.506C252.744 63.1296 253.75 62.9512 254.498 62.6142C255.04 62.3962 255.478 61.9998 255.762 61.4448C255.994 61.0682 256.123 60.0374 256.123 58.3922V36.7075C256.123 35.0226 255.994 33.9721 255.762 33.5558C255.53 33.1197 255.065 32.763 254.343 32.4458C253.647 32.1287 252.693 31.9701 251.506 31.9701H250.062V31.0781H272.5V31.9701H271.056C269.818 31.9701 268.812 32.1485 268.064 32.4855C267.522 32.7035 267.084 33.0999 266.775 33.6549C266.542 34.0315 266.413 35.0623 266.413 36.7075V58.3922C266.413 60.0771 266.542 61.1276 266.775 61.5439C267.032 61.9601 267.497 62.3367 268.193 62.6539C268.915 62.971 269.869 63.1296 271.056 63.1296H272.5Z" fill="black"/>
</svg>
