<svg width="32" height="33" viewBox="0 0 32 33" fill="none" xmlns="http://www.w3.org/2000/svg">
<path d="M16 18.7502C15.0111 18.7502 14.0444 18.457 13.2222 17.9076C12.3999 17.3582 11.759 16.5773 11.3806 15.6637C11.0022 14.75 10.9031 13.7447 11.0961 12.7748C11.289 11.8049 11.7652 10.914 12.4645 10.2147C13.1637 9.51545 14.0546 9.03925 15.0246 8.84632C15.9945 8.65339 16.9998 8.75241 17.9134 9.13085C18.8271 9.50929 19.6079 10.1501 20.1574 10.9724C20.7068 11.7946 21 12.7613 21 13.7502C20.9984 15.0758 20.4711 16.3467 19.5338 17.284C18.5964 18.2214 17.3256 18.7487 16 18.7502ZM16 10.7502C15.4067 10.7502 14.8266 10.9262 14.3333 11.2558C13.8399 11.5855 13.4554 12.054 13.2284 12.6022C13.0013 13.1504 12.9419 13.7536 13.0576 14.3355C13.1734 14.9175 13.4591 15.452 13.8787 15.8716C14.2982 16.2911 14.8328 16.5768 15.4147 16.6926C15.9967 16.8084 16.5999 16.7489 17.1481 16.5219C17.6962 16.2948 18.1648 15.9103 18.4944 15.417C18.8241 14.9236 19 14.3436 19 13.7502C18.9992 12.9548 18.6829 12.1922 18.1204 11.6298C17.558 11.0674 16.7954 10.751 16 10.7502Z" fill="white"/>
<path d="M16 30.7502L7.56401 20.8012C7.44679 20.6519 7.33079 20.5015 7.21601 20.3502C5.77499 18.452 4.99652 16.1335 5.00001 13.7502C5.00001 10.8329 6.15894 8.03497 8.22184 5.97207C10.2847 3.90917 13.0826 2.75024 16 2.75024C18.9174 2.75024 21.7153 3.90917 23.7782 5.97207C25.8411 8.03497 27 10.8329 27 13.7502C27.0035 16.1324 26.2254 18.4499 24.785 20.3472L24.784 20.3502C24.784 20.3502 24.484 20.7442 24.439 20.7972L16 30.7502ZM8.81301 19.1452C8.81301 19.1452 9.04601 19.4532 9.09901 19.5192L16 27.6582L22.91 19.5082C22.954 19.4532 23.188 19.1432 23.189 19.1422C24.3662 17.5914 25.0023 15.6973 25 13.7502C25 11.3633 24.0518 9.07411 22.364 7.38628C20.6761 5.69846 18.387 4.75024 16 4.75024C13.6131 4.75024 11.3239 5.69846 9.63605 7.38628C7.94822 9.07411 7.00001 11.3633 7.00001 13.7502C6.99791 15.6985 7.63479 17.5937 8.81301 19.1452Z" fill="white"/>
</svg>
