<svg width="32" height="32" viewBox="0 0 32 32" fill="none" xmlns="http://www.w3.org/2000/svg">
<g clip-path="url(#clip0_98_744)">
<circle cx="16" cy="16" r="16" fill="url(#paint0_linear_98_744)"/>
<path fill-rule="evenodd" clip-rule="evenodd" d="M20.3115 5.3335H11.6888C8.18448 5.3335 5.3335 8.18448 5.3335 11.6888V20.3115C5.3335 23.8158 8.18448 26.6668 11.6888 26.6668H20.3115C23.8158 26.6668 26.6668 23.8158 26.6668 20.3115V11.6888C26.6668 8.18448 23.8158 5.3335 20.3115 5.3335ZM24.5207 20.3115C24.5207 22.6362 22.6362 24.5207 20.3115 24.5207H11.6888C9.36416 24.5207 7.47963 22.6362 7.47963 20.3115V11.6888C7.47963 9.36412 9.36416 7.47963 11.6888 7.47963H20.3115C22.6362 7.47963 24.5207 9.36412 24.5207 11.6888V20.3115ZM16.0001 10.4826C12.9578 10.4826 10.4826 12.9578 10.4826 16.0001C10.4826 19.0425 12.9578 21.5177 16.0001 21.5177C19.0425 21.5177 21.5177 19.0425 21.5177 16.0001C21.5177 12.9577 19.0425 10.4826 16.0001 10.4826ZM16.0001 19.3716C14.1381 19.3716 12.6287 17.8621 12.6287 16.0001C12.6287 14.1381 14.1382 12.6287 16.0001 12.6287C17.8621 12.6287 19.3716 14.1381 19.3716 16.0001C19.3716 17.8621 17.8621 19.3716 16.0001 19.3716ZM22.8505 10.5241C22.8505 11.2542 22.2586 11.8462 21.5284 11.8462C20.7982 11.8462 20.2063 11.2542 20.2063 10.5241C20.2063 9.79387 20.7982 9.20193 21.5284 9.20193C22.2586 9.20193 22.8505 9.79387 22.8505 10.5241Z" fill="white"/>
</g>
<defs>
<linearGradient id="paint0_linear_98_744" x1="6.5" y1="32" x2="21" y2="4.14905e-07" gradientUnits="userSpaceOnUse">
<stop stop-color="#FBD06F"/>
<stop offset="0.3" stop-color="#F16C2E"/>
<stop offset="0.6" stop-color="#C82E96"/>
<stop offset="1" stop-color="#4E6AD6"/>
</linearGradient>
<clipPath id="clip0_98_744">
<rect width="32" height="32" fill="white"/>
</clipPath>
</defs>
</svg>
