<svg width="273" height="83" viewBox="0 0 273 83" fill="none" xmlns="http://www.w3.org/2000/svg">
<path d="M1.98975 77.0337C1.98975 77.4845 1.98975 78.2508 2.62842 78.927C3.47998 79.8737 5.23632 80.009 6.08788 80.009C8.90867 80.009 10.4521 78.7467 10.4521 77.0787C10.4521 76.673 10.3989 75.7714 9.33445 75.1854C8.69578 74.8247 8.37645 74.7796 5.76855 74.1936C4.43798 73.9231 3.79931 73.6527 3.79931 72.7961C3.79931 71.8495 4.7041 71.2634 6.24755 71.2634C7.312 71.2634 8.48289 71.5339 8.58934 72.706H10.186C10.1328 72.3002 10.1328 71.6691 9.49412 71.1282C8.58934 70.3167 7.09911 70.2266 6.40722 70.2266C4.33154 70.2266 2.20264 71.0831 2.20264 72.9765C2.20264 73.6076 2.46875 74.2838 3.37353 74.8247C3.95898 75.1403 4.70409 75.3206 6.40722 75.6813C7.95067 75.9968 8.9619 76.2222 8.9619 77.2591C8.9619 77.7099 8.69578 78.927 6.35399 78.927C3.79931 78.927 3.69287 77.7099 3.69287 77.0787L1.98975 77.0337ZM18.2758 76.7632C18.3291 75.6813 18.3823 73.1117 14.9228 73.1117C14.497 73.1117 13.539 73.1568 12.7939 73.6076C11.5698 74.3289 11.3037 75.3657 11.3037 76.673C11.3037 78.7467 12.4746 80.009 14.8696 80.009C16.4131 80.009 17.1582 79.468 17.5307 79.1524C18.0629 78.6565 18.1694 78.1156 18.1694 77.8H16.7324C16.6259 78.7467 15.8808 79.1524 14.9228 79.1524C13.3261 79.1524 12.6875 78.1607 12.6875 76.8083L18.2758 76.7632ZM12.7939 75.9067C12.8471 74.4641 13.9648 73.9682 14.9228 73.9682C16.6792 73.9682 16.8388 75.2755 16.8388 75.9067H12.7939ZM19.979 79.7836H21.416V76.3124C21.416 75.1854 21.7885 74.3289 23.5449 74.3289C23.7045 74.3289 23.8642 74.3289 23.9706 74.3289C24.0771 74.3289 24.1835 74.3739 24.2368 74.3739V73.1568C23.9706 73.1568 23.6513 73.1117 23.2255 73.2019C22.5869 73.292 21.6821 73.5625 21.3627 74.4641L21.3095 73.2019H19.8725C19.9257 73.6527 19.9257 74.1035 19.9257 74.5092L19.979 79.7836ZM27.4301 79.7836H28.8671L32.2201 73.2469H30.6235L28.2285 78.4312L25.7802 73.2469H24.1835L27.4301 79.7836ZM33.2314 71.7593H34.9877V70.4069H33.2314V71.7593ZM33.391 79.7836H34.828V73.2469H33.391V79.7836ZM37.1698 79.7836H38.6068V76.0419C38.6068 74.7346 39.5648 74.1035 40.6293 74.1035C41.1083 74.1035 41.6405 74.2387 42.0131 74.5543C42.3856 74.8698 42.4389 75.2305 42.4389 75.6813V79.8286H43.9291V75.4108C43.9291 73.4273 41.8002 73.2019 41.1615 73.2019C39.4052 73.2019 38.873 74.1035 38.7133 74.3739V73.3371H37.2763V74.1035L37.1698 79.7836ZM45.8451 80.2794C45.8983 81.181 46.0048 82.3982 49.0917 82.3982C50.1561 82.3982 51.6464 82.263 52.285 81.2261C52.6044 80.7302 52.6576 80.0991 52.6576 78.5213V74.4641L52.7108 73.292H51.327V74.1936C51.0077 73.878 50.4755 73.2019 48.8788 73.2019C47.016 73.2019 45.4725 74.2838 45.4725 76.4927C45.4725 77.3492 45.6854 78.2508 46.3241 78.882C46.9628 79.5582 47.974 79.6934 48.6659 79.6934C49.1449 79.6934 50.5819 79.6483 51.2206 78.5664C51.2206 80.3245 51.1674 81.5868 49.1981 81.5868C47.8143 81.5868 47.4418 81.0458 47.3886 80.3245L45.8451 80.2794ZM49.0385 78.7467C47.2821 78.7467 46.9096 77.4394 46.9096 76.4025C46.9096 75.546 47.1757 74.0133 48.9852 74.0133C49.6239 74.0133 50.2626 74.2387 50.6351 74.5993C51.0077 74.9149 51.2206 75.4108 51.2206 76.2222C51.2206 77.3943 51.0077 77.7549 50.6884 78.1156C50.369 78.5213 49.89 78.7467 49.0385 78.7467ZM57.8202 74.1485H59.204V78.5213C59.204 79.6032 59.8426 79.9188 61.1732 79.9188C61.7054 79.9188 62.1312 79.8737 62.3441 79.8286V78.882C62.2376 78.927 61.9715 78.927 61.6522 78.927C60.641 78.927 60.641 78.3861 60.641 78.0705V74.1485H62.3441V73.2469H60.641V71.4888L59.204 71.8945V73.2469H57.8202V74.1485ZM63.5682 79.7836H65.0052V76.3124C65.0052 75.9067 65.0052 75.3206 65.2713 74.9149C65.4842 74.5993 66.0164 74.0584 67.0809 74.0584C68.7308 74.0584 68.7308 75.3206 68.7308 75.9067V79.7836H70.221V75.7263C70.221 74.7797 70.1146 74.4641 69.9549 74.1936C69.5291 73.3822 68.3582 73.1568 67.5067 73.1568C66.4422 73.1568 65.4842 73.5625 65.0052 74.2387V70.452H63.5682V79.7836ZM78.8431 76.7632C78.8963 75.6813 78.9495 73.1117 75.4901 73.1117C75.0643 73.1117 74.1063 73.1568 73.3611 73.6076C72.137 74.3289 71.8709 75.3657 71.8709 76.673C71.8709 78.7467 73.0418 80.009 75.4368 80.009C76.9803 80.009 77.7254 79.468 78.098 79.1524C78.6302 78.6565 78.7366 78.1156 78.7366 77.8H77.2996C77.1932 78.7467 76.4481 79.1524 75.4901 79.1524C73.8934 79.1524 73.2547 78.1607 73.2547 76.8083L78.8431 76.7632ZM73.3611 75.9067C73.4144 74.4641 74.5321 73.9682 75.4368 73.9682C77.1932 73.9682 77.3528 75.2755 77.3528 75.9067H73.3611ZM92.947 72.9314C92.7341 70.8126 90.552 70.2716 88.9553 70.2716C85.0169 70.2716 84.1121 73.2469 84.1121 75.1854C84.1121 76.9886 84.8572 79.9188 88.7425 79.9188C90.6585 79.9188 92.6809 79.1524 92.8938 77.3041H91.1907C91.1375 77.5295 91.031 77.9353 90.6585 78.2959C90.1795 78.7016 89.5408 78.8369 88.8489 78.8369C86.2942 78.8369 85.7088 76.9435 85.7088 75.1403C85.7088 73.5625 86.1878 71.2634 88.8489 71.2634C90.9778 71.2634 91.1907 72.5707 91.2439 72.8863H92.947V72.9314ZM93.7454 76.5829C93.7454 78.4762 94.9695 79.9639 97.5242 79.9639C100.132 79.9639 101.409 78.3861 101.409 76.4476C101.409 75.0952 100.718 73.0215 97.6306 73.0215C94.6502 73.1117 93.7454 75.0051 93.7454 76.5829ZM95.2356 76.5378C95.2356 74.5092 96.7258 74.0133 97.6306 74.0133C98.9612 74.0133 99.866 74.8698 99.866 76.4927C99.866 78.4311 98.6419 79.1074 97.5242 79.1074C95.9275 79.1074 95.2356 77.8451 95.2356 76.5378ZM103.059 73.2469V77.6197C103.059 78.8819 103.964 79.8286 105.827 79.8286C107.477 79.8286 108.009 79.1074 108.275 78.6566L108.328 79.7836H109.819C109.819 79.4229 109.765 78.7016 109.765 78.5664V73.2469H108.275V76.9435C108.275 77.2591 108.275 77.8 107.956 78.1607C107.53 78.7016 106.891 78.882 106.146 78.882C104.656 78.882 104.496 78.0705 104.496 77.4394V73.2469H103.059ZM112.107 79.7836H113.544V76.0419C113.544 74.7346 114.502 74.1035 115.567 74.1035C116.046 74.1035 116.578 74.2387 116.95 74.5543C117.323 74.8698 117.376 75.2305 117.376 75.6813V79.8286H118.866V75.4108C118.866 73.4273 116.738 73.2019 116.099 73.2019C114.342 73.2019 113.81 74.1035 113.651 74.3739V73.3371H112.214V74.1035L112.107 79.7836ZM119.718 74.1485H121.102V78.5213C121.102 79.6032 121.74 79.9188 123.071 79.9188C123.603 79.9188 124.029 79.8737 124.242 79.8286V78.882C124.135 78.927 123.869 78.927 123.55 78.927C122.539 78.927 122.539 78.3861 122.539 78.0705V74.1485H124.242V73.2469H122.539V71.4888L121.102 71.8945V73.2469H119.718V74.1485ZM125.572 79.7836H127.009V76.3124C127.009 75.1854 127.382 74.3289 129.138 74.3289C129.298 74.3289 129.458 74.3289 129.564 74.3289C129.671 74.3289 129.777 74.3739 129.83 74.3739V73.1568C129.564 73.1568 129.245 73.1117 128.819 73.2019C128.18 73.292 127.276 73.5625 126.956 74.4641L126.903 73.2019H125.466C125.519 73.6527 125.519 74.1035 125.519 74.5092L125.572 79.7836ZM137.867 73.2469H136.323L133.875 78.3861L131.48 73.2469H129.83L133.024 79.7385L131.853 82.2179H133.343L134.461 79.7836L137.867 73.2469ZM138.506 78.2508L137.494 81.4515H138.559L140.262 78.2508H138.506ZM146.063 79.7836H147.607V75.5911H149.416C151.385 75.5911 152.184 75.2755 152.769 74.7797C153.355 74.2838 153.621 73.6527 153.621 72.9314C153.621 72.2101 153.355 71.579 152.822 71.1282C152.077 70.452 151.172 70.3618 149.789 70.3618H146.063V79.7836ZM147.553 71.4437H149.682C150.481 71.4437 151.918 71.4437 151.918 72.9314C151.918 74.4641 150.374 74.5092 149.363 74.5092H147.553V71.4437ZM154.685 79.7836H156.122V76.3124C156.122 75.1854 156.495 74.3289 158.251 74.3289C158.411 74.3289 158.57 74.3289 158.677 74.3289C158.783 74.3289 158.89 74.3739 158.943 74.3739V73.1568C158.677 73.1568 158.358 73.1117 157.932 73.2019C157.293 73.292 156.388 73.5625 156.069 74.4641L156.016 73.2019H154.579C154.632 73.6527 154.632 74.1035 154.632 74.5092L154.685 79.7836ZM159.901 71.7593H161.657V70.4069H159.901V71.7593ZM160.061 79.7836H161.498V73.2469H160.061V79.7836ZM169.162 74.1485C168.949 73.8781 168.417 73.0215 166.767 73.0215C164.957 73.0215 163.307 74.1035 163.307 76.5829C163.307 79.4229 165.596 79.9188 166.607 79.9188C167.139 79.9188 167.884 79.7835 168.523 79.4229C168.896 79.1975 169.108 78.927 169.215 78.7467L169.268 79.7836H170.705C170.652 79.468 170.652 78.8819 170.652 78.7467V70.452H169.215L169.162 74.1485ZM169.162 76.4476C169.162 76.9435 169.162 79.0623 166.873 79.0623C165.117 79.0623 164.744 77.7099 164.744 76.5829C164.744 76.1321 164.744 73.9682 166.873 73.9682C167.671 73.9682 168.257 74.2838 168.576 74.6444C168.949 74.96 169.162 75.5009 169.162 76.4476ZM179.061 76.7632C179.114 75.6813 179.168 73.1117 175.708 73.1117C175.282 73.1117 174.324 73.1568 173.579 73.6076C172.355 74.3289 172.089 75.3657 172.089 76.673C172.089 78.7467 173.26 80.009 175.655 80.009C177.198 80.009 177.943 79.468 178.316 79.1524C178.848 78.6565 178.955 78.1156 178.955 77.8H177.518C177.411 78.7467 176.666 79.1524 175.708 79.1524C174.111 79.1524 173.473 78.1607 173.473 76.8083L179.061 76.7632ZM173.579 75.9067C173.632 74.4641 174.75 73.9682 175.708 73.9682C177.464 73.9682 177.624 75.2755 177.624 75.9067H173.579ZM184.277 76.5829C184.277 78.4762 185.501 79.9639 188.056 79.9639C190.664 79.9639 191.941 78.3861 191.941 76.4476C191.941 75.0952 191.249 73.0215 188.162 73.0215C185.128 73.1117 184.277 75.0051 184.277 76.5829ZM185.767 76.5378C185.767 74.5092 187.257 74.0133 188.162 74.0133C189.493 74.0133 190.397 74.8698 190.397 76.4927C190.397 78.4311 189.173 79.1074 188.056 79.1074C186.459 79.1074 185.767 77.8451 185.767 76.5378ZM197.529 70.3167C197.21 70.2716 196.784 70.2266 196.358 70.2266C195.347 70.2266 194.762 70.5421 194.442 70.9478C194.176 71.2634 194.123 71.624 194.123 72.5257V73.2469H192.58V74.1485H194.123V79.7836H195.56V74.1485H197.37V73.2469H195.56V72.2101C195.56 71.7593 195.56 71.2634 196.731 71.2634C196.997 71.2634 197.316 71.2634 197.583 71.3085V70.3167H197.529ZM201.255 74.1485H202.639V78.5213C202.639 79.6032 203.277 79.9188 204.608 79.9188C205.14 79.9188 205.566 79.8737 205.779 79.8286V78.882C205.672 78.927 205.406 78.927 205.087 78.927C204.076 78.927 204.076 78.3861 204.076 78.0705V74.1485H205.779V73.2469H204.076V71.4888L202.639 71.8945V73.2469H201.255V74.1485ZM207.003 79.7836H208.44V76.3124C208.44 75.9067 208.44 75.3206 208.706 74.9149C208.919 74.5993 209.451 74.0584 210.516 74.0584C212.166 74.0584 212.166 75.3206 212.166 75.9067V79.7836H213.656V75.7263C213.656 74.7797 213.549 74.4641 213.39 74.1936C212.964 73.3822 211.793 73.1568 210.941 73.1568C209.877 73.1568 208.919 73.5625 208.44 74.2387V70.452H207.003V79.7836ZM222.278 76.7632C222.331 75.6813 222.384 73.1117 218.925 73.1117C218.499 73.1117 217.541 73.1568 216.796 73.6076C215.572 74.3289 215.306 75.3657 215.306 76.673C215.306 78.7467 216.477 80.009 218.872 80.009C220.415 80.009 221.16 79.468 221.533 79.1524C222.065 78.6565 222.171 78.1156 222.171 77.8H220.734C220.628 78.7467 219.883 79.1524 218.925 79.1524C217.328 79.1524 216.689 78.1607 216.689 76.8083L222.278 76.7632ZM216.796 75.9067C216.849 74.4641 217.967 73.9682 218.872 73.9682C220.628 73.9682 220.788 75.2755 220.788 75.9067H216.796ZM228.132 79.7836H229.516V71.8044L235.158 79.7836H237.127V70.4069H235.743V78.1607L230.314 70.4069H228.185L228.132 79.7836ZM245.483 79.7836C245.376 79.1074 245.376 78.2508 245.376 78.1607L245.43 75.0501C245.43 74.7346 245.43 74.419 245.163 74.0584C244.738 73.3822 243.567 73.1117 242.449 73.1117C241.651 73.1117 240.533 73.292 239.948 73.833C239.522 74.2838 239.469 74.7346 239.415 75.0501H240.852C240.852 74.7797 240.959 73.9231 242.396 73.9231C242.822 73.9231 243.46 74.0133 243.726 74.3739C243.993 74.6444 243.993 75.0051 243.993 75.8165C243.567 75.7714 243.301 75.7714 242.928 75.7714C242.289 75.7714 241.065 75.8165 240.267 76.2222C239.149 76.7632 238.936 77.6197 238.936 78.1156C238.936 79.1975 239.894 80.054 241.651 80.054C242.289 80.054 243.354 79.9639 244.046 78.882C244.046 79.1975 244.099 79.5131 244.205 79.8737H245.483V79.7836ZM243.993 76.6279C243.939 77.5295 243.939 77.8902 243.62 78.341C243.247 78.7918 242.715 79.0623 241.97 79.0623C240.693 79.0623 240.373 78.341 240.373 77.9353C240.373 76.6279 242.556 76.6279 243.141 76.6279C243.514 76.5829 243.726 76.5829 243.993 76.6279ZM246.281 74.1485H247.665V78.5213C247.665 79.6032 248.304 79.9188 249.634 79.9188C250.166 79.9188 250.592 79.8737 250.805 79.8286V78.882C250.699 78.927 250.432 78.927 250.113 78.927C249.102 78.927 249.102 78.3861 249.102 78.0705V74.1485H250.805V73.2469H249.102V71.4888L247.665 71.8945V73.2469H246.281V74.1485ZM251.923 71.7593H253.679V70.4069H251.923V71.7593ZM252.082 79.7836H253.519V73.2469H252.082V79.7836ZM255.276 76.5829C255.276 78.4762 256.5 79.9639 259.055 79.9639C261.662 79.9639 262.94 78.3861 262.94 76.4476C262.94 75.0952 262.248 73.0215 259.161 73.0215C256.127 73.1117 255.276 75.0051 255.276 76.5829ZM256.766 76.5378C256.766 74.5092 258.256 74.0133 259.161 74.0133C260.492 74.0133 261.396 74.8698 261.396 76.4927C261.396 78.4311 260.172 79.1074 259.055 79.1074C257.458 79.1074 256.766 77.8451 256.766 76.5378ZM264.749 79.7836H266.186V76.0419C266.186 74.7346 267.144 74.1035 268.209 74.1035C268.688 74.1035 269.22 74.2387 269.593 74.5543C269.965 74.8698 270.018 75.2305 270.018 75.6813V79.8286H271.509V75.4108C271.509 73.4273 269.38 73.2019 268.741 73.2019C266.985 73.2019 266.452 74.1035 266.293 74.3739V73.3371H264.856V74.1035L264.749 79.7836Z" fill="black"/>
<path fill-rule="evenodd" clip-rule="evenodd" d="M164.639 0.352295H181.404L222.279 47.0102V7.42987C222.279 3.41774 215.839 0.487537 215.839 0.487537H236.809C236.809 0.487537 231.327 3.14727 231.327 7.3848V67.3864C231.327 67.3864 221.64 64.0505 214.296 55.6205C206.951 47.1905 179.435 16.7164 179.435 16.7164V57.018C179.435 59.9031 185.183 63.4645 185.183 63.4645H164.426C164.426 63.4645 170.174 60.8047 170.174 57.2434V8.061C170.227 2.74154 164.639 0.352295 164.639 0.352295ZM254.798 47.0102V7.3848C254.798 3.37267 248.305 0.397378 248.305 0.397378H273C273 0.397378 267.465 3.0571 267.465 7.29463V56.5672C267.465 60.3539 272.734 63.4645 272.734 63.4645H249.05C249.05 63.4645 254.851 60.4441 254.851 57.3336V47.0102H254.798ZM114.131 6.75367V25.8676H124.829C129.778 25.8676 136.857 23.6587 136.857 15.8599C136.857 8.06099 126.372 6.75367 122.753 6.75367H114.131ZM114.131 32.0887V56.9729H128.235C133.717 56.9729 143.935 52.9608 143.935 45.207C143.935 37.4532 135.58 32.0887 127.703 32.0887H114.131ZM95.8223 0.397378H132.067C140.157 0.397378 149.417 6.25779 149.417 14.282C149.417 25.1914 139.571 26.634 139.571 26.634C139.571 26.634 156.815 30.1953 156.815 44.1702C156.815 58.145 137.975 63.4645 131.694 63.4645L95.3433 63.3743C95.3433 63.3743 101.624 60.6244 101.624 55.9361V7.97083C101.624 3.10218 95.8223 0.397378 95.8223 0.397378Z" fill="black"/>
<path fill-rule="evenodd" clip-rule="evenodd" d="M0.5 0.397461H23.7582C23.705 0.532701 23.5454 0.893341 23.3325 1.61462C22.3212 4.95055 20.831 14.5977 31.0497 28.7078C33.5512 32.1789 35.9994 34.9739 38.5009 37.6787L30.4111 43.1785C16.999 29.2037 0.5 11.4421 0.5 11.4421V0.397461ZM0.5 24.4702V63.5096L23.0664 48.0922L7.52537 31.6831L0.5 24.4702ZM75.0115 20.5032C74.8519 20.3229 74.16 19.4213 73.1488 18.5647C70.0619 15.8599 63.3558 11.5322 55.3192 15.2288C47.8681 18.6549 44.036 26.4988 53.35 36.8673C60.9608 45.3874 67.8797 46.2439 71.765 45.7481C72.4569 45.6579 74.4793 45.2522 75.0115 44.9817V20.5032ZM75.0115 9.09792V0.442537H33.5512C33.498 0.577777 33.1786 1.11874 33.0722 2.02034C32.8061 4.00387 32.6996 7.83568 34.4028 13.2002C36.6913 20.5934 43.078 27.2201 43.078 27.2201C43.078 27.2201 42.4394 19.8721 50.4227 13.065C55.4789 8.78236 61.2269 7.42996 65.9105 7.47504C67.5604 7.47504 69.0506 7.70044 70.3812 7.92584C70.9134 8.016 74.5858 8.9176 75.0115 9.09792ZM75.0115 48.1373C74.7987 48.2725 74.3729 48.498 73.6278 48.9487C71.6053 50.1208 67.2411 51.8339 60.0028 50.9323C53.4564 50.0758 47.2294 46.4243 41.4813 40.6991L33.2851 46.289C39.0863 52.1945 43.557 56.9279 45.0473 57.8295C50.6888 61.2556 54.5741 59.9483 54.5741 59.9483L49.3583 63.5547H75.0115V48.1373ZM36.372 63.5096H7.95115L10.2929 61.9318L26.0468 51.2478C26.0468 51.2478 32.2739 58.1 34.7753 60.6245C35.2543 61.1204 35.5737 61.5712 35.8398 61.9769C36.3188 62.6531 36.2655 63.149 36.372 63.5096Z" fill="black"/>
</svg>
