<svg width="273" height="95" viewBox="0 0 273 95" fill="none" xmlns="http://www.w3.org/2000/svg">
<path fill-rule="evenodd" clip-rule="evenodd" d="M38.5647 30.1247H54.9398V36.1756C54.9398 36.1756 55.074 38.1842 52.8728 38.1842C50.6447 38.1842 46.0543 38.1842 46.0543 38.1842C43.8531 38.2338 43.8799 37.0435 43.6115 35.7788C43.2357 33.8693 40.4707 30.6951 38.5647 30.1247ZM33.0885 38.457H20.3374V34.5637C20.3374 34.5637 20.3911 30.1495 25.2231 30.0999C30.0551 30.0503 32.7932 30.0999 32.7932 30.0999C32.7932 30.0999 41.9471 29.604 41.9471 38.4074C41.9471 47.1861 41.9471 64.6442 41.9471 64.6442C41.9471 64.6442 41.7324 68.5624 43.6115 70.6951C43.6115 70.6951 37.8936 72.6294 35.3971 70.3727C32.8737 68.116 33.2764 65.5618 33.2227 64.1483C33.169 62.71 33.0885 38.457 33.0885 38.457Z" fill="#040404"/>
<path fill-rule="evenodd" clip-rule="evenodd" d="M174.223 57.0954C171.082 57.0954 168.773 54.9875 168.773 51.5157C168.773 48.0687 171.082 45.9608 174.223 45.9608C177.39 45.9608 179.699 48.0687 179.699 51.5157C179.699 54.9875 177.39 57.0954 174.223 57.0954ZM174.223 41.4227C167.914 41.4227 163.029 45.6881 163.029 51.5157C163.029 57.3682 167.619 61.6087 174.223 61.6087C180.853 61.6087 185.444 57.3682 185.444 51.5157C185.148 45.6881 180.558 41.4227 174.223 41.4227ZM153.821 51.7885C153.552 51.7885 153.552 51.5157 153.821 51.5157C154.975 51.2677 155.834 50.4742 156.693 49.6558L163.592 41.6955H156.989L149.526 50.4742V33.4624H143.781V61.3607H149.526V52.3341L156.13 59.5008C157.284 60.8151 158.438 61.3607 160.451 61.3607H164.451L156.693 53.1276C156.13 52.3341 154.975 51.7885 153.821 51.7885ZM213.013 41.4227C209.577 41.4227 207.268 43.0346 206.141 44.8945C204.986 42.7618 202.973 41.4227 199.51 41.4227C196.933 41.4227 194.92 42.4891 194.061 44.101C194.061 44.3489 193.765 44.3489 193.765 44.101C193.497 42.7618 192.047 41.6955 190.625 41.6955H188.316V61.3607H194.061V51.5157C194.061 48.0687 195.51 45.9608 198.383 45.9608C200.664 45.9608 201.819 47.2752 201.819 49.6558V61.6087H207.563V51.2677C207.563 47.8207 209.013 45.6881 211.59 45.6881C213.899 45.6881 215.026 47.0024 215.026 49.4078V61.3607H220.771V48.0687C220.771 44.101 217.63 41.4227 213.013 41.4227ZM139.754 36.3886C139.754 34.8015 138.305 33.4624 136.587 33.4624H134.305V57.9137C134.305 60.8151 136.292 61.8815 138.305 61.8815C139.191 61.8815 140.05 61.6087 140.909 61.3607C140.05 60.2944 139.754 58.4345 139.754 57.0954V36.3886ZM107.004 39.5876C107.004 36.6614 104.4 34.256 101.26 34.256H95.7834C94.0653 34.256 92.6157 35.5951 92.6157 37.455V39.8356H101.26V57.9137C101.26 60.8151 103.246 61.8815 105.259 61.8815C106.145 61.8815 107.273 61.6087 107.863 61.3607C107.004 60.2944 106.709 58.4345 106.709 57.0954L107.004 39.5876ZM115.326 38.5213V34.256H104.991C104.696 34.256 104.696 34.5287 104.991 34.5287C106.414 35.3223 107.568 36.9094 107.863 38.5213C107.863 39.3148 108.427 39.5876 109.286 39.5876H113.903C115.004 39.5628 115.326 39.3148 115.326 38.5213ZM233.146 49.4078C230.274 48.6143 229.415 48.0687 229.415 47.2752C229.415 46.2088 230.542 45.4153 232.556 45.4153C234.864 45.4153 237.441 46.2088 238.891 47.2752V43.0346C237.173 41.9683 234.864 41.4227 232.287 41.4227C227.106 41.4227 223.938 44.101 223.938 47.548C223.938 50.9949 227.106 52.582 230.542 53.3756C233.415 54.1939 234.864 54.7147 234.864 55.7811C234.864 57.0954 233.71 57.9137 231.428 57.9137C228.26 57.9137 225.952 56.8474 224.234 55.2355V59.7488C226.247 61.0879 228.824 61.6087 231.697 61.6087C237.173 61.6087 240.314 59.228 240.314 55.5083C240.314 51.5157 236.582 50.2014 233.146 49.4078ZM116.185 49.4078C116.776 47.0024 118.494 45.1425 121.071 45.1425C123.379 45.1425 125.097 46.4816 125.393 49.4078H116.185ZM121.071 41.4227C115.326 41.4227 110.44 45.4153 110.44 51.7885C110.44 57.6409 114.762 61.8815 121.93 61.8815C124.534 61.8815 127.111 61.0879 129.419 60.0216V55.2355C127.406 56.5746 125.097 57.3682 122.52 57.3682C119.057 57.3682 116.48 56.0538 115.89 52.8548H130.842C130.842 52.3341 131.137 51.5157 131.137 50.9949C130.842 44.8945 126.547 41.4227 121.071 41.4227ZM247.803 49.4078C248.367 47.0024 250.085 45.1425 252.689 45.1425C254.971 45.1425 256.715 46.4816 256.984 49.4078H247.803ZM252.689 41.4227C246.944 41.4227 242.058 45.4153 242.058 51.7885C242.058 57.6409 246.354 61.8815 253.548 61.8815C256.125 61.8815 258.702 61.0879 261.011 60.0216V55.2355C258.997 56.5746 256.715 57.3682 254.112 57.3682C250.675 57.3682 248.072 56.0538 247.508 52.8548H262.46C262.46 52.3341 262.729 51.5157 262.729 50.9949C262.46 44.8945 258.138 41.4227 252.689 41.4227ZM271.346 56.8474V36.3886C271.346 34.8015 269.923 33.4624 268.205 33.4624H265.896V57.9137C265.896 60.8151 267.91 61.8815 269.923 61.8815C270.782 61.8815 271.641 61.6087 272.5 61.3607C271.346 60.0216 271.346 58.4345 271.346 56.8474Z" fill="black"/>
</svg>
