<svg width="32" height="32" viewBox="0 0 32 32" fill="none" xmlns="http://www.w3.org/2000/svg">
<rect width="32" height="32" rx="16" fill="#1C1C1C"/>
<path fill-rule="evenodd" clip-rule="evenodd" d="M14.0532 13.7335V12.9014C13.7644 12.8605 13.4732 12.8393 13.1815 12.8379C9.61469 12.8379 6.71289 15.7402 6.71289 19.307C6.71289 21.4949 7.80638 23.4317 9.47447 24.6029C8.35754 23.4085 7.73659 21.834 7.73749 20.1987C7.73749 16.6827 10.5567 13.8156 14.0532 13.7335Z" fill="#00F2EA"/>
<path fill-rule="evenodd" clip-rule="evenodd" d="M14.2057 23.1528C15.797 23.1528 17.0953 21.8868 17.1544 20.3091L17.1597 6.22519H19.7327C19.6778 5.93113 19.65 5.63264 19.6496 5.3335H16.1357L16.1298 19.4179C16.0712 20.9951 14.7725 22.2606 13.1816 22.2606C12.7039 22.2608 12.2335 22.1444 11.811 21.9215C12.0838 22.3021 12.4433 22.6122 12.8597 22.8263C13.2761 23.0405 13.7374 23.1523 14.2057 23.1528ZM24.5392 11.0057V10.2229C23.5936 10.2238 22.6683 9.94875 21.8768 9.4314C22.5707 10.2304 23.5051 10.7828 24.5397 11.0057" fill="#00F2EA"/>
<path fill-rule="evenodd" clip-rule="evenodd" d="M21.8762 9.43081C21.1005 8.54325 20.6733 7.40435 20.6738 6.22559H19.7323C19.8542 6.87711 20.107 7.49712 20.4755 8.04806C20.8441 8.599 21.3206 9.06941 21.8762 9.43081ZM13.1811 16.3523C12.3979 16.3533 11.6471 16.6648 11.0933 17.2186C10.5395 17.7724 10.228 18.5232 10.2271 19.3064C10.2276 19.8452 10.3753 20.3736 10.6543 20.8345C10.9334 21.2953 11.333 21.6712 11.8101 21.9214C11.4468 21.4205 11.2512 20.8174 11.2512 20.1986C11.2519 19.4153 11.5634 18.6644 12.1172 18.1105C12.671 17.5565 13.422 17.2449 14.2053 17.2441C14.5097 17.2441 14.8014 17.2944 15.0769 17.3809V13.793C14.7882 13.7521 14.4969 13.7309 14.2053 13.7295C14.1539 13.7295 14.1036 13.7325 14.0528 13.7334V16.4892C13.7709 16.3994 13.477 16.3533 13.1811 16.3523Z" fill="#FF004F"/>
<path fill-rule="evenodd" clip-rule="evenodd" d="M24.5392 11.0059V13.7371C22.7167 13.7371 21.0286 13.1543 19.6497 12.1648V19.3067C19.6497 22.8735 16.7484 25.7753 13.1816 25.7753C11.8033 25.7753 10.5251 25.3405 9.47461 24.6027C10.0786 25.254 10.8105 25.7735 11.6247 26.1288C12.4388 26.484 13.3175 26.6672 14.2057 26.667C17.7725 26.667 20.6743 23.7652 20.6743 20.1989V13.057C22.0987 14.0813 23.8093 14.6314 25.5638 14.6293V11.1143C25.212 11.1143 24.8699 11.0762 24.5392 11.0054" fill="#FF004F"/>
<path fill-rule="evenodd" clip-rule="evenodd" d="M19.6499 19.3064V12.1645C21.0742 13.1889 22.7849 13.739 24.5393 13.7369V11.0056C23.5049 10.7825 22.5707 10.2299 21.877 9.43081C21.3213 9.06941 20.8448 8.599 20.4762 8.04806C20.1078 7.49712 19.8549 6.87711 19.733 6.22559H17.16L17.1546 20.3095C17.0955 21.8867 15.7973 23.1527 14.2059 23.1527C13.7377 23.1522 13.2763 23.0403 12.8599 22.8262C12.4435 22.6121 12.0841 22.302 11.8113 21.9214C11.3341 21.6713 10.9343 21.2954 10.6552 20.8345C10.3761 20.3737 10.2283 19.8453 10.2277 19.3064C10.2286 18.5232 10.5401 17.7724 11.0939 17.2186C11.6477 16.6648 12.3986 16.3533 13.1818 16.3523C13.4857 16.3523 13.7774 16.4022 14.0534 16.4892V13.7334C10.557 13.8155 7.73779 16.6826 7.73779 20.1986C7.73779 21.8989 8.39838 23.4468 9.47477 24.6028C10.5599 25.3668 11.8548 25.7762 13.1818 25.775C16.7486 25.775 19.6499 22.8732 19.6499 19.3064Z" fill="white"/>
</svg>
