<svg width="32" height="32" viewBox="0 0 32 32" fill="none" xmlns="http://www.w3.org/2000/svg">
<g clip-path="url(#clip0_98_745)">
<path d="M0 16C0 7.16344 7.16344 0 16 0C24.8366 0 32 7.16344 32 16C32 24.8366 24.8366 32 16 32C7.16344 32 0 24.8366 0 16Z" fill="#349DF0"/>
<path d="M16.0735 12.5681L16.1125 13.2024L15.4622 13.1248C13.0952 12.827 11.0272 11.8172 9.27139 10.1212L8.41299 9.27968L8.19189 9.9011C7.72368 11.2864 8.02281 12.7493 8.99826 13.7332C9.5185 14.277 9.40145 14.3547 8.50404 14.031C8.19189 13.9274 7.91877 13.8498 7.89275 13.8886C7.80171 13.9792 8.11386 15.1574 8.36097 15.6234C8.69913 16.2707 9.38844 16.9051 10.1428 17.2806L10.7801 17.5783L10.0257 17.5913C9.2974 17.5913 9.27139 17.6042 9.34943 17.8761C9.60954 18.7176 10.637 19.6109 11.7815 19.9993L12.5879 20.2712L11.8856 20.6855C10.8451 21.281 9.62255 21.6176 8.39999 21.6435C7.81472 21.6565 7.3335 21.7082 7.3335 21.7471C7.3335 21.8765 8.92023 22.6015 9.84365 22.8864C12.6139 23.7279 15.9044 23.3654 18.3756 21.9283C20.1314 20.9056 21.8872 18.873 22.7066 16.9051C23.1488 15.8565 23.591 13.9404 23.591 13.0212C23.591 12.4257 23.63 12.348 24.3583 11.6359C24.7875 11.2216 25.1907 10.7685 25.2688 10.639C25.3988 10.3931 25.3858 10.3931 24.7225 10.6132C23.617 11.0015 23.4609 10.9498 24.0072 10.3672C24.4104 9.95289 24.8916 9.202 24.8916 8.98191C24.8916 8.94307 24.6965 9.0078 24.4754 9.12432C24.2413 9.25378 23.721 9.44798 23.3309 9.5645L22.6285 9.78459L21.9913 9.35735C21.6401 9.12432 21.1459 8.86539 20.8857 8.78771C20.2224 8.60646 19.208 8.63235 18.6097 8.8395C16.9839 9.42209 15.9565 10.9239 16.0735 12.5681Z" fill="white"/>
</g>
<defs>
<clipPath id="clip0_98_745">
<rect width="32" height="32" fill="white"/>
</clipPath>
</defs>
</svg>
