<svg width="48" height="49" viewBox="0 0 48 49" fill="none" xmlns="http://www.w3.org/2000/svg">
<g clip-path="url(#clip0_98_753)">
<path d="M24 48.5C37.2548 48.5 48 37.7548 48 24.5C48 11.2452 37.2548 0.5 24 0.5C10.7452 0.5 0 11.2452 0 24.5C0 37.7548 10.7452 48.5 24 48.5Z" fill="white"/>
<path fill-rule="evenodd" clip-rule="evenodd" d="M24.791 37.8523H24.7851C22.3966 37.8515 20.0497 37.2522 17.9653 36.1153L10.3999 38.0998L12.4245 30.7046C11.1756 28.5403 10.5185 26.0853 10.5196 23.57C10.5227 15.7015 16.9247 9.2998 24.7908 9.2998C28.6085 9.30145 32.1917 10.7877 34.8861 13.4852C37.5805 16.1826 39.0636 19.7681 39.062 23.5813C39.0589 31.4481 32.6594 37.8491 24.791 37.8523ZM18.3158 33.5317L18.7489 33.7888C20.5701 34.8695 22.6577 35.4413 24.7862 35.4421H24.791C31.3287 35.4421 36.6498 30.1209 36.6524 23.5805C36.6537 20.411 35.4211 17.4309 33.1816 15.1888C30.9421 12.9467 27.9639 11.7113 24.7956 11.7102C18.2528 11.7102 12.9317 17.0309 12.9291 23.5709C12.9282 25.8122 13.5553 27.9949 14.7426 29.8834L15.0247 30.3322L13.8264 34.7093L18.3158 33.5317ZM31.4923 26.6539C31.741 26.7741 31.909 26.8552 31.9807 26.9749C32.0698 27.1236 32.0698 27.8376 31.7728 28.6707C31.4755 29.5036 30.051 30.2638 29.3658 30.3661C28.7515 30.458 27.974 30.4963 27.1199 30.2248C26.6019 30.0605 25.9378 29.8411 25.087 29.4737C21.7441 28.0302 19.4849 24.7902 19.058 24.1778C19.028 24.1349 19.0071 24.1049 18.9955 24.0893L18.9926 24.0855C18.8039 23.8337 17.5394 22.1466 17.5394 20.4006C17.5394 18.758 18.3463 17.8971 18.7176 17.5008C18.7431 17.4737 18.7665 17.4487 18.7874 17.4258C19.1143 17.0688 19.5006 16.9796 19.7383 16.9796C19.976 16.9796 20.214 16.9818 20.4218 16.9922C20.4474 16.9935 20.4741 16.9933 20.5016 16.9932C20.7094 16.9919 20.9685 16.9904 21.2241 17.6043C21.3224 17.8406 21.4663 18.1908 21.618 18.5602C21.9248 19.3072 22.2639 20.1326 22.3235 20.252C22.4127 20.4305 22.4721 20.6387 22.3532 20.8768C22.3354 20.9125 22.3189 20.9461 22.3031 20.9783C22.2138 21.1606 22.1482 21.2947 21.9967 21.4716C21.9371 21.5411 21.8755 21.6161 21.8139 21.6911C21.6912 21.8405 21.5686 21.9899 21.4618 22.0963C21.2832 22.2741 21.0974 22.4671 21.3054 22.8241C21.5134 23.1811 22.2291 24.3487 23.2891 25.2943C24.4287 26.3107 25.4191 26.7403 25.9211 26.958C26.0191 27.0006 26.0985 27.035 26.1568 27.0642C26.5132 27.2427 26.7212 27.2128 26.9293 26.9749C27.1373 26.737 27.8207 25.9337 28.0583 25.5767C28.296 25.2199 28.5338 25.2793 28.8606 25.3983C29.1876 25.5174 30.9407 26.3799 31.2973 26.5584C31.3669 26.5933 31.432 26.6247 31.4923 26.6539Z" fill="#E06D1A"/>
</g>
<defs>
<clipPath id="clip0_98_753">
<rect width="48" height="48" fill="white" transform="translate(0 0.5)"/>
</clipPath>
</defs>
</svg>
